<mxfile host="65bd71144e">
    <diagram id="HIP3nbAZw_EuaXWnEj3U" name="Page-1">
        <mxGraphModel dx="1086" dy="743" grid="1" gridSize="10" guides="1" tooltips="1" connect="1" arrows="1" fold="1" page="1" pageScale="1" pageWidth="850" pageHeight="1100" math="0" shadow="0">
            <root>
                <mxCell id="0"/>
                <mxCell id="1" parent="0"/>
                <mxCell id="7" value="http://ics2o.mths.ca" style="swimlane;whiteSpace=wrap;html=1;" parent="1" vertex="1">
                    <mxGeometry x="25" y="20" width="800" height="499" as="geometry"/>
                </mxCell>
                <mxCell id="8" value="" style="shape=image;verticalLabelPosition=bottom;labelBackgroundColor=default;verticalAlign=top;aspect=fixed;imageAspect=0;image=data:image/png,iVBORw0KGgoAAAANSUhEUgAAAu4AAAGtCAMAAAB+5wGnAAAAGXRFWHRTb2Z0d2FyZQBBZG9iZSBJbWFnZVJlYWR5ccllPAAAAwBQTFRF+e48/Paa/PaWpG2qfzNK+u9KsLGy4d4y6OVM6eZRtIa4+vBX+vBZ+/Jy+e011tQR+e46+vFi+e4//Pae+e5B09IM+/Fk+u9E2dcZ+u9G+u9Ix7Ix+u9NmFh5+vBQ+vBS59jo9fCE8u10279J+vBU+e007elg+vBY8exxnmNy4stG+vFc+e44/Peh3Nok+vFe+vFg7ulk8u140bVr7ehd+/JngDNZ+/Jp+/SA9O+B+/Jr+/Js/feljkw05uPn2tccq3Zr+u9PtJ+738zh+/Ju+/Jw5uRF5eJA+/N0kZGV3cWM0tAJ/PSI+/N33Noh3dwp+/N5sIgv5OI9/PWM7+to+/N60bTTfzI4+/N8fjIqcnN2+/R+9fCJ8Oxu3t0r/PSFgTWJ/fep/PSG8+579vGNsZEY/PWKqHUz4uA1xcXG/PWP09EKiUKQnGJXkmWW6uhV2NYW28Jd/PWR28N22MHb5+VI+/SC/PWTxLQRvZFe4+E5llSc+POV19fYk1RJ8OtsyKbLvpSExZ1Z7Ohab0t8qXZQtYhk8Otq6+hYzKhUwJnDiUGEhj8p8evxvpV2+/Sh49FxupJmmWAztY1Y0LKE9/KP+fOY+vSdkU6Y8fDx4N4u////+PKS7N6Vu6QTmZqc0bZPzLVE8+9+wqoq19YU6tZAcS98sopE+/Wl1NQPnmwdhDmM+vj65OE7q3iLzscMkVMfupNKq4NL/fisyqlA8uI5+fX5z7HS0s8HnmOkvJsx0rth+vSafjEfWSdnzc7P4Ms2yL4Q5eNC7+Xw3dU62cA4/Pr89OqXroRW08wbpnwa8uVbto5xmVuf8uRM/fz9TCFc+fOb8+Zr8eEz8uNE8+ZjzK3P8OSI3sabz6zQhz2OmlyJhz+D2dIv8+d36tY5fX6BsIJ2+u5DkEx/+e03+e5C+vBP09IL/PSD9/L43dsn09MN29ke5uND0KnP/v7+/v3+//7/oqOlvL2+1s8i8OtuxKF76d1p5dKfo1qj1s0w8+h9y70pw7PIjkKTwZ5FmSXUdAAAUZpJREFUeNrs3QtgXUWdP3DaCwUubaEizxKIhIgJT0UeAq3B8C6oCKS2gAxKqaWJCg2UgK1pkGDSh7aoBOLS1BILpNqCtLZgrRBF7JIt7LrqVnetrQLhsenjv7i7f//wn5kzj9/M/Oack7TQe8+dXzTN4yZpk0++fGfOuefu1RkmTMnMXuFbECZwDxMmcA8TJnAPEyZwDxMmcA8TJnAPEyZwDxMmcA8TJnAPEyZwDxMmcA8TuIcJE7iHCRO4hwmTZrbX/qd//q38OX6jjb185u/yV1s+f/7GwD3MHtP+n3e9HTP/08hu1Ju/i8//5Npr+UfV5tvVZ2jM/9vy6KVt7fno5u35+fJ3Kd++urNzfj5fG31Y7q6+XHtv4B5mz0x5B4mbnrcZ5d+CN+Ro3s/fRHqk99q3CakT8AnZxFjnCMlt52/ppZ+9fWNnroe8zX4bNkWf4+32jYF7mD0xtSRhWBQ3w1+AHOXOzJbzj3+O2ia/jRpPO4nkU+Md+rOv5W/Y1Nn5n/pz5AP3MIXJfXvEPd/e3N68llkt376dxjXJ8Y+voy919A7wl3HuOfkG9t+Rt3O5evrHpvLAPcye5r5pbXP5/PLfdmDpzlr5wOo8fak9qkA97C397LbNUXN5zpfuA3exdtNLX76Ltpj+PFH1J3APs2e4b+rLN67unfaJL33p/61uR9KdL0J5i8+LX4C7+ju35aO20hmf7mvZh5eLD+3cmO/LLw/cw+xB7n21/fM/8aWvv8jmR/1r8XSPRLNF6vI+wlarjewWsph4051+fMfqbazwd/BNme39z4XuHmZPci9v/PqLP/vBD+hLP3vxxU+U4+neW8dKDN9kLOerVVZl2gcS0337+H76yl3MO7YLGbiHeY+5j8//QAL/2Ytf31bvpvv2/vzb7A3N0QeyGsNe71PHnvzpvp2V+4HaHr4Lma8dCNzD7FnuP/mJAv6DF19c3YekO+fak98WfeD8u6L3N+rP5U13MXVvR9vu+fnbA/cwe5L72nId6C/+bFsH0t3Hc62b8lHx3tYod+GT011Ofz76Ih29gXuYPcm9fnlOc7+kF+3ujbk+dlxUeN/OPqD+gU483QeQdKez+rdr2X8j7lq9PXAPs+e4k9q8Ev713v4cvjPT30grzNu1+kPh4VGZ7myb/e3oTY02dwq+jv3K/FtI9zB7knte7cb87Gdf/8Tyuh50I7LzJ3qxKjfSN+be7lstV68s3dkm5Wp1a1n2O/v7O/HID9zDvNfc166W5f0HP3vxxa+Pl+fJzDe514mN9+hD2ckv23p7xG/A2uhQKz/2FJ1Go0+oofTf7og+x2q2n9MfuIfZg9zry3Nwb+ZLG8Vqdb5xVJVTttKdFf21/ds7ezexzyJ+JfrYfxVqN/Xoo1A5WYPK+S9X4P4e/6CtKXHu5Ld1BHqf1Wyme3sjnf9kC82eRiPdtz/HfjH+p5ntyvfk2Km9/L8Tm/LtOdbS+7Zp7j2b8nW1/9Zhdf7A/V2a8tq69vZcbq33HO++3Np8e3tjbW8Jcs/NB9+In734iUazu/fw4bWn30x3cX5wjz6hAJwwvEnty5fzs9038c/RE86IfFd/qHXt0ZmnqaeDum8sLyHuPZuWd8B4/1J5D3q+u9o0Hygn4k4eG+WmzibR0zeqc8zq6/SOY63+Afy2M3B/dwKdQsfDvKyKDyHRn1s9cd/e2FsS3AmpbYfcL6nV++7ld8nfiY617er0ro05cpc4g6Au17Gp/q6cjofa/F319W+vNc+Q6c3zz7Mp5xbHwH2Xp7cunzPxzq2qampqq6iortRDCHiloqKipamV/Q7Aqc+w+VpwF6NGyL32J7rMdPbWNtay7l7bC85l3N6vS9/y3vJyeMftgY395eXjV2+zvtr8xrq6uvLnOgP33RzqzUZ32VrV1CKQj7aGEPst/GbVFZT9XPjf8Hxzeaa5k7seuEt396939ul057ij59s9n2f7tu278tcI3HcP9blVNM4x5n7ugP2qipZWEPX1+bre7HInverA6g++3tsMDjO9+xO4D2n66/KaelVTV3cM9NF/YUMI/2N0DPrqttYykPKNWeXeLInXf+KBuk3gnJnxO+msX73e+MhZ432fc/4s5xTf5TsfCNx3d1lvVl39jzUt1Zj0vzgjuBuDma9oqpL7bT25uv4Mcu/JLWfP72ovHyjP94BzZgbWX7J58iWLx082SveOHb7PudN9z47JOwYC991qXZ2jjVHXlk/UcxAdQthz8EYfe0Ce7VI392aNO+nobc83989vbO+w7qtKBV9CM37yrBHTVtOoHzF+QHGfNWLn/IEHpo2Y9tzyabPWj1+/fsT6bTTdp83aSfN8/Iids2axWz2weefk8Z0P0PdOG3huGr3NxsB9t1jf2lphUTeYH+RMxN0cg71JflVXzVYZhlnIeONKBLle+h/IDvc6MxH3WZN37Ny887nNI3Zupj1mI+c+a/POEZs7p9E3TRu/+ZL1IzaPGDF5/LTFnZsX79w8YvnmHdM2L2Yfvn7y8s076fMROydPm08/zeRpgfvQ+7q0XtbSbVAH0A/yDcYdqHfN0y6vqnyuMVPc9dFRPN2Xd14yYtrm9esvGcHTnb7nksXr12+eNX/HiMUjxm9+gN5sW+fkWYz7+M4RO9Zv7uycxrnTD9i5mf5ubNy2c/H8yfTTLQ7chzTb1XnaNW2roHUl3SS8lz2EOG9y0NvkKyu7W8rkZk1vxrgTT7pvZN198Yhpk+myVaX74s30tQcuGTH+kh2M+4hLOgcY94HN4zeOGLF+88YI9vjJkzdPnjxr/eaBTsZ9IHAfYrA3d8hch9Yx6nt5BuHuqnfJU/FNUavp6asr5l3bpFMrloMyw7g/sHnEtB2seu+gxWUaLTM7R2y7ZMT8S0S6d8p0HxixY/XmxSN4mRmxedasWZfsmEXLzOYRD/BONBC4DzXYtzZ129ah9L1ix8/dRi/Iw1ZTM7fYI37bJ34QO+Jk3/G0bD+wc2D7tFkD83csnjbAF6k7RszqnLV4x6zO8Tso/OU7n9s4fn3ntp0P0Ocjlg/MojfdOY3t0gzMYluYs6at3zxt8c6B+ZPXL7a1B+6JIxt7TYW2bqe6h/D7wBACX0swf6JFvrKyTWxP5or1BOLtdbkveSc3fmPs/qF657aBgU72v43b4YHXxdPoolSfSEC7O33OunvYiBxkixGbZVtpifHEerxyD/cY956Qr+xujSK+WDvNAB3/+3bpU09bvHga2Ksfv5N9yudGBO6DxV5vB7tpPRX0WO44elQ8jfho3dpRnDuTAwXwdwjcvSNO7Zhb020Eu8e6Q/j95hBivSEBvSFeRXxFTVTi2/vDzydwfxewN62qRKzHSDdM/1UNIfrlGPYIeUN8ZXe0bA3gA/fdN6sj7FvbYIvBrKPSI9RbjCHEfN2C7yMPxEvwq5oE+PBjCtx3V2fvgdg9we5Kd5gfJocQ9aLD3iUfG/ESfEdd+FEF7rs8zfVmsqPWMeku8sMw7oe58DHzcREvwdeGn1bgvkvT2OHD7rWupbuijxBDiHzJq16a94pHwOfKw08scB/6CjUXLVBjsHuoY8bBaO5gXPMOeS/4ylWt0VXowpo1cB9iaY/ubqB2Yxh2T7AL6zZ1l/SR0RAiXohDL8kb4u2I1+C7+bZkfXP4wQXuQ5g6XtrVPruLHVqXsY5KP9IZxR0Mah6GvCfiNfiKsugBj8LPLnAfUo/ZWpGEHVh3pWvL+5hDiPUGTL1FHoj3gm/jFT6/Ovz8AvfBDL/Yz9wWH3avdUf6Pug43C31Nnk34z3gWYXvIfWN4ScYuKeecn7eY40o7fHYEetx0OO5Q/So+ETwldW80eRCwAfug4l22WPUboyJ3bZuUPcwPkoNIfrlOPMmeVs8BK93aSpbWKMJAR+4DyLaW1fJHuPF7lj3UD/KHcg9xj0kD8T7wUd/52iPJgR84J48zXa0o9jdYMesH+UblDuK3hGvIh4BrwK+KwR84J56Q0ZEezx223qC9PPgEGK8mmBei1cRnwR+VU3Yognck6ax3oh2o8cg2D3WEeYvR3O0GELkS+IdGPsY8Sh4o9GwBt9D+sJZBYG7d/hh1Bo02jX2LQZ227otHSLXo7nrkeoTxRsl3gUvA767Cjy6epjA3S4ybI06t8uIdi92LNhN6Sj0Y6IhRLzgQ4+SRyIeAa8DvonffTucRRO4+4pMWXTOgBntBnZfsNvUEeR6FHc9lnmDfEzE2+BhwFdWsIvShEITuLvDN9tbvdEuOrsHu4/6Me4cx4YQ/gfybh/5FOCRgOcr1vpwx4/A3Rz+AOWgyFjRDheoEjtmHVB3iMMR3OFg5jl5VLwCbyxajYDXhcZ5hMUwpc2dH1oyi4wd7UnYmXWX+nHuHECHEPYceSdGXouPA28HvCo0bAs+FPjA3artakcGi3YPdsQ6Kv0AayLucFDzMeJt8P6AX1UWCnzgDoY/cnMLLDJmtCdgR6x7nXu52+r94v3grSWrCnhe4MNZ8IE7H3ZZjbkVlc4aFUS7WqHGYbeoY5qPF0OIfCnOvCXeB16sWd2AlyvWyhb2+xwWrIF7Z+dqtkgtq65Ei4zVYxzstnWcegR7JBhC4GsYfJO8L+IBeNBonELDz6HpCQvWwL2fL1JXOUVG9pi/Yth1sCPWbegjkTG5Q/YIeUN8LHhryQoKfDXbgc8PBOKlzZ1vydRUerUb0W5hF8Hus+5IP0EPIeAVx3yseBrxGHirwTsFni9YwwZNaXPnDyPR6tR2q7Vj0Y5h90g/wR2DO8IemveDTw54UOD5Eae+4L2EuXPtbU5tN6M9EbtjPQ56DHcLPS4+Abwd8LDAB++lzd3Rbq9RPT1GYAfBjlj3cT6FDSH8jyTytngd8S54EPD2itXwHjbgS5R7nbEBaWkXa1Qj2l3sZrAr67hxMII7GB95XWusiLfAYwHveG9jG/DBe0ly59qrbe26yODR7mC3rSdAp3PqqacSQp8h70LJ64zHweMBbxb44L3Eufu1G0XGjHax9ehgR61bxOFw7nC85i3xFvjzznMCHik0wXvJc4/TbhQZs8dg2DHrCPQxYAiBryHq/eJt8GajUYXmr38N3gP3VNrVjowV7brHuNgx6ohzlLupHiOPg3cbjRXwyAZN8F6C3NmeTKQdWaSCIoP3mDjsJnWD86F6CAGvYOgd8THgrUaDet/L8h72I0uIO6rdWKQ6RQbHjlu3pB/qjsHdZR8nHgXvKTTogpV7D/vvpcM9lXZZZLBoR7ED63HS/dxN85h4GzzaaFSh8S1Yg/eS4t7r0w4XqTHRHoMdWsc5n86HkOjPePJafDJ4rNBscQp88F5y3Pk5kF2VnkUqUtujaI/D7ljHkeuR3PV4yLviPeBFg48t8No7uwdrflvgXiLaxZkDqHZQ233RjmD3Wj8dG5c7Yt4Wj4D3Bbxb4C3vNeEO26XBPZ+s/UhUu8Z+PIYdse5wPlMOIerFePNKvAP++OPdgPcVeNO7On+mOXDP+GzLq/Pb//IXr3ZQZF4GRQb0GIhdB7uP+pn2AO4oewz8qQ541Wik95fPwwo87r0s3J8v+9zrgPYT02h3ot2LHbdumj5bDCHyJb95S7wfvAh4XWjivZ+o7+9R4oebMs+9Vt1TL0m7LjIw2o0eY7QYhDrC3OWOsI8TD8CbjQYtNLHeu+dS772Be7Y33Lem1q52ZNBoh9hd6w70c4whxHzdQe+K94G3Ah7u0CR4r55b4tuRGefONmXmVpvnycRot4sMj/Y02E3q5yBjc4fobfEJ4KOAxwsN6l2fL9ZW4tszGeee63E23BO0G0VGRzuG3bLuSD8fDiHGq455j3gXvBHwRqFJ4Z1vvzcH7tkcdo3fpl3SbkQ7hh21fr47FncbvSveAm8F/FC9j2bbkbWBe1aXqTWjnQ33eO2qyKDRjmKH1KHmC8AQAl/DzGvxCHg84GGBT+Fdbc/0Bu4ZLO71alNmUNqRaEexO9YR56PkEKJeRNR7xLvg8YCP925sv1fy5Wrgnr3pM84LG6p23WMQ7K51mznC3WLvEY+BNwJerVjTehd1pquEl6sZ5t4uzx2wtiBTaDeLjBntJnbEumn6YjGEyJcQ82bIo+DtgIeFJta7sx1Z2Up6SGPgnr3i3oosUxHtcAMyIdox7Cj1i63R3F32gLwZ8Qh4M+CRBavXu96eKd36nlnuSHGXmzKodmuRakW7g121GMT6xdi43A3ztngfeCvgsQWr6R1brrKjq7nAPWM77rK4p9du1nY72g3sINgTqcdwt8m7nQaCtwLes2CN867re3vgnp1pRou7WKbGaT/e1Q6jHWJXwe6hfjkcQoxXPeSdiFfgYcBD71iBh97R5So/Gbg8cM/KsHvr1YweivaRQDssMrCzY8Huh45yR9BjEQ8XrUmFZjDeV20tzZNnssl9W46QuUhxl8tUsCfzsn+R6hQZEO1msMdS/zQfQqI/Y8mbEY8HvCo0Pu/G/gy2XOW776X52B7Z5N6s75uKb8roHUhcu1VkYrH7qH/aGMldjo98OvBIgVfez0vwHtX3ppI8mSCT3FmVaUWLu6P95cFoj8fuQr8aDCHwNRd9InhvobG9w/13bLmqdyM7+gP3LOzKiHPcjR13u7jHawdFBkS7H7tF/WpnTO4QvSseAW8GvFlo/N6R+q5236tL8eBqFrmzKlNhF3ef9qP92r3RLrB7rAPPn9VDCHjFJo+LF+D9AT9071Gd6Sm53ZkMcmcHmGqMKoMsUwel3Yx2H3aD+mftMbhb6CF5P3gZ8Enej7a9O/Vd15m+wD0DVWbuKm9xd7YgY7W70W5hR6xD0deoIUS/jJiHGe+CxwI+2buxXEV2IytK764e2eNeq3Zl8Crjbrin0a6jHXZ2v3Vt+6xoCBEvuOpd8WaHNwI+0buz/X6E7V3tRraW3Lkz2ePeQUiVp8oYxT2ldqPImNGusaPUzzJGcTfVm+RR8DDgjUIT7x2p73adWTWX9OQC92Iedtpvtwx3XWXc4g433GO1R0VGR7uBXQW7Qf0sd2zuwDwUryPeAC8CXhcar3d3+13Vd7POyHNnagP34t5yb7IPMFnF3dmCTNCORTsa7D7qXu6KPBrx3oBP5d1drhp1JjrYVEVIR+BevJOHW+5ulcGXqSm129FuBjtG/XY9hIBXMPJmxLvgVcCn8o7Ud6zOdJfYajVj3D3rVLvKOJsy8drtIuNid6wr2a+KIUS+hKNX4g3wutGk845vz6j67m6+t5bWw9hkjHuOrlNHW+GOVBl7mZqoPSoyZo/xYtfOr9dDCHhFq48BbwW8KjTmBg3uHVmu4nWGrlZL6dhqtrj/hIZ79WiwTvVXGWdTBmo3tmRiol1it6ib0BHuCr1FHoI3A14VGmfBCr1b2zOgvqN1hn2nWkgP6Q3ci3UTssZdp2JVxlmmItrN2o5jN4JdWAeiP6+GEP2yQd4ULyMeBY8vWBHvxnLVW2eiY6tbS+lRPTLFnV3bujuxyhjFPUn7+ah2LNkt68r2ZdEQIl5w0IuQx8Ej3s9P692u73ad0cdWawP34pt+tQkJ16lGlTF23M1NGaO347UdiXaIXVk3nNvcDfVGxluVxgl4tMAj3uFyFa8zxrHVKkJy2wL3YjzCNHdVqnBHlql+7aMs7S52aN2VfhMfQqI/XfOIeE/AmwU+8g73Z5Dlaoj3rHI3wt1ep3qrjNqUidGui0wU7Qh2zPpNcCT3myz1UDwKXgS8U+Ad7+b2jKfOIKvVUor3vbIe7niVcYt7Su062jV2EezQukH7SjaE8D8w81o8j3gF3gz41N6t+u7UGTve2f1WSyXe98p0uCdUGXOZCvbbXe26yBjRbmK3qF8JR3CXY5HHwMOAtwq89g6ON7n1PU2dEZfhKJF43yvb4W6vUz1VxtqUwbXDIqOiXWM3rF/pjMUdmlfiFXg74GGh8Xj31HejziCrVR7v3SUT73uVWLijVcbZgsS1iyJjRLsR7F7rHu6WeBnxdsBbhQZ6PxP1jtSZEO/Z4l6nwt3dhESrDFLcE7XDaFcLVBO7qflmNYTolzHxXvBGoUnybtd3rM648V46mzOZ4d4RF+7muTJGlbGKu1imptH+6qsAu2v9ZnMgd8e8Fi+9v+oEPOrdWq6C+m7UGWu16sZ7VYkcWt0rc+F+YlK4Y8U9rXakxyjsfuo333zrrYTceqvzZls8BG8G/CC8u7uR6eK9N3AvmumTZ8vY4W6tU91dGVjc9RZkkvYY7IZyNYy7GpQ8Aj7Ju7UdidV3q86UeLxnhHstdraME+54lcE2ZVJqd7Fj0tnMJGSm9aZY8IPzjtZ3/2rViPfo0GpbaZz3nhHuuZ7Bhbu5K4MsU2O0i9YOot22rpHrodz1OOQheB3wqsF7vGPbkU6dQeN9ixPvW0viiu/Z4N4rrhuWKtxjq4zelInRbka7hR2h7nCH5r3gYcCj3q3tGbfOgNVqYry3lMS9VrPBPd9DytKFe0yVMZep8dqjaHex29SHsyc+hER/8jfFihfgRcCn8G7Xd6zOJLZ3dremxsC9KKZePlRHTLi/rMPdV2Xs4g60m7XdiXaIXUuHI7kPV+qheMz7ZYZ3Dt7w7qvvyGpVbEbGxTs/1BS4F8suJLwTU+pwR6tMjPbbLe0udpQ6wh2S94KX3m9P9O6pM2niXe5FVpfCXmQWuLPH6mgdXLjHVpkY7bq262h3sRszLHoiRLyAiXfAQ+9GoXG8o/XdqjPRajUu3qMrpGb/8TyywL1XXDhsSOFuVhmruKvejtV2G7sT7MP00zDGnc5wxLyOeAu8W+BBf3frO1ZnBhPvbC8ycC+Chaq8KqR7njsM92Piwx0U93jtlznasWAXytVE3MWY5kHEO94vS+Nd1/ddifdSWKxmgXtHD1+oWruQxtkyMNyxdSpa3M09GaBdFRkTuwp2m7rDXZvHEx4r8M7+TEx9NzcjkXiPToy09iJLYLGaAe6N1rmQnnA/Ojnc7eLu145E+/AY6yh3RDwa8Kh3p75bdSZNvIO9SHWvpv7AvfC7TI27UB16uMNlaqJ2hX2mD/vB0RPlLl5yxGPgE7zD5eruiXdxZLU5cC/sYffrgEdU0YUqEu7YOhWpMl7tWLRb1KltNYToly3yUvxMCd4oNDHejTpztsf78cihVWexqo6s9gXuBb/pvjVuF9Ib7vFVxtqC9Gr3YYfUbe4OeRXx8d6d7UiszujVqjfefYvV7sxvvRc/d3zT3ewy8eGOVxlzUwbTLqIdwW5bR7hb4iF4o9AA79b2TNo6ExfvztZ7xttM0XPvZ1dBrUxcqLp77snhbhZ3TLuOdgO7OSfxJ8o9esEnXlUaHfCWd3M7MnW8H++Pd3vrPfNtpui5x3UZa6E6iHB3i3usdo3dzHXKWw4h6kXLvAV+5vAk7259TxvvSYvVzLeZouee67G7jLNQxQ4xIeHuVhljmYpqt6Mdp25xt8nriDcKje3dXK5idSY23s29SLBYLaU2U+zc+8UV3X1dJm2441XGXKb6tA93k92yftK5lPu55ptM8U6hcbwby9U0dSYu3ku1zRQ790a0ywxuoeqEu1Xc47Uj0W44p09sKHc2/A2I+GFmwHu9x9eZRO5Hl3ibKXLu2/LE12WwhWq0CxkdUI1bp3qKO95kvNgF9HMh93MleiUeD3jHu1vfRZ2Jiffo0KqzFwmOrGJtpi5wL9ipJ6RrF7uMN9zTaFfZbmM3rNvcDfJ2wA9P5X2I8Z7UZpqyfd5MkXMvl3fsiO0y5kLVCnezuTvrVGuZ6sl2C7ttHePOxKPgdYEH3uFyFVmt6ng/E4t3fLGKtBl+3kzgXqjTTkjN6NguM9Rwt6oMqt2Odokdzg3siQ4h7Dl/FYl4NOBvdbw7dWaX491pM1szfRZwkXPvI8a5v2m7TLQLiYd7XJWxmwyiHQZ7BD2aiHs0BnnMu9iBt/I9qc5Y8Y7tRSa2mcqaTN+nqbi594P7MXm6DNh0j1mo+sJdVxlZ3N1sN6Idt25xN8WLhLfAG95BfcfqTFK8y8VqijbD7tPUF7gX1zZk2i6TNtx1lXGzHdVuWXe5c/IxAW/lO1pnjHgfhcV7qjZj3acp01uRxc09bx5STd9lYsLdWqc6VSYm23Wyw/kxf6Lcoxcw8FHAi114J9+R+p463gfTZqILcGR6K7K4ufe525DW+TJIlzEXqtHZMp5wN6qMod3MdivaLek/ZkMI/8M2jwV8jHdRZ/zxHp05k77NGGcB863I1iw/anxRc2fVfRXaZY6I6zLOQjUh3K0qA/fbEe2mdTWCuzZvgRcBj3j31pnEePcvVmPOAu4ipGMgcC/M6l4Wc0gV6zKnJHcZf7g7xd0pMqqzm9Yt7oK8Dd7yPhzzniLe8SOrqbciV2X5HqtFzV1Ud2wb0j3G5Osy0ULV3ZYB61RfcXdrO0h2Or8HQwh45b9N8B7vnjpjxzu2FxnbZs4z2wxS3hsD9wKcHCFto5O3If1dZgjhbmf7P1xK5605C+bMWVDFp+wMdAjB3x59UNUc+vFzvs0+16/sfHfrjN6MjOJ9sG3GuxUpynt2d96Lmrvcdce3IdPsy6ALVU+4C+2/oiQXLFhQU9VQNfuM9OPjjs5s+slfWLDgLfqlbtVHV5PiHV+spmgzTnnPBe6FN7XOrrtT3fW5v26XORPpMtFCFYZ7tE793YwZby1Y0NDQsPcZe+9N/8+fPNPQUCWe/rxw4QvR0wsLCREvsKcaeQv/bwz/Avxr7V3V0LBg4VuXzvgdjPfb4+Kdb7172ow+CxhuRVonAQfuhTfN5gkzSHXX5/4mdxnkgOrnvzXjrYWt1HjEjgHfW0pnGKnshob76LQ8zeZvd3/wgx/+8Ievuor9/6qr7r33qqu+9rWv/Rcd+pwQ9mL0f/qOe9ktxI0/+MEP/o1/ghb6qZ5nn/MM+QWiXyz+xfk0NLQuPG3Gtyj4V5EzZxLbzHFImzHLOzttZm52H3WyiLmzc92bKu1dd1jdU3cZc6F61jUzZixcGCm3Z3ZDwxPL7nunq6trv/2+vD+dL3/5y99gc/dH7/4o1/7hqwT2r0XzX9EQIl4Qb76Xg2fimfePfvTuu9kn+cY3vsw/6377v0m/xOP3LXuioWG2MG9Mwz0LW2Z8i8e7uReJtZmYrUhY3uVJwDXZvQdfMad7n7yeUurqju3LwIXqf8xoW3gPYz7RND67Ydmyd5Ys+cVtF1747LO37Xfbbfvtt9/+Cvvdd9/90Y9S60I7wM54fygaQsQLinwE/sNXce9MPCXPvXPw+9MvQb/QbW8+++abz1YvWfL4smUNDeNs9Xs3PN902ozLU7WZNOVdnvOe1UfhK2buzkGm2OpunC9jd5lR33q6iTqfGEEX2MfNnrrs8bFL7mTzmc9cdNGbF7554YUX3saxx2qPsGvqH/rQsZT7seq1Dwnx994LAt7n/UL2K3bRRZ/5zA+/eOcP7/zFkrHLli1qGMf/ghPF/ybu3XBf04y/4W1GnzfjK+/2znsFIWtDuhf4SjV1dbeOMTHosycyM/wZ5UOZX7F07L8/uO8Xv/hF9v877/zhDxn3Z5+NtPNs38/R/mGhXWLX1I+lQ7mz+dCxSrwCLwPe8i64A+8/pL93X7yT/a323fd/xz61bOqivSPt7G9O/99wT9Mtf7sgrs2kKu8ZXqsWMfc687LuvhNm/NX9n29puadhIp+I+rhFU68Y+/fP0dl33wcfpKYi7EL7Rc+a4f7l/W3tVyntAnsk/VjAPTKvweuA93qnX/RN6D3i/uCDD37ucw9+7lNjl15B1Ufmo2l4vuWWFFuRyGkz8kATXauWB+6Fd0wVW6mKE2Ziq/vp/3rL4/eMkz449CuWLn3t5E+xYdwfVNo1dxnuoMpY2c6LDEj2CPdHjv0IHULYc/qKAx7N92i9SrnvJ7zTXzcd7/ty7+wv+jn2N37ttU+OfeqKReOA+dn3tNxy6OmJ5d08bUbexaMqs8dVi5h7Tp8OmbhSBdX9FJrpSvrEiQz639/4JJ2T6bz2ms2dFXcd7rcB7qLKGNqjaL9OYY+oa+58NPjrVMDDfEfqTMT9M4y7KDNRvDPur7128sn87//Jj/+dodf/ttn3tFWnK+/OSZHtgXuBTYe4OGTcSlWcMCO7zD92Pb6IMpgUaaDVZenhH//4xw//+BtvSO4q3d1wfxMNd0e77DEMu5gv0CGEPf+CAP8RCZ5vwyd5F/Futhkd76+xvzn9B7zxxscPp/+eX9N6o83Pa3j8lhOc8h6/Vm3J7HHVIuZOF1SpVqrigVT/sWvZbIVg0Yan7vjKVx7+CuNBsUvuMtwV9zu/iIT7/vvZVcbRroL9C3IEd0VeJrzl3awz+8fH++d0vEfcKXj623s4/Yc9vHSKND9p4qTZy7piTptx1qoVmb0DX/FyT9yYgdWdUqc/9UmTeHuZsvTRhx9++CtfodgZ9zci7m6XiQ13VmUw7ddJ7Rr799kT5c7/VOBZwstC43pPEe9Gm2He34i8s38V/VVmc8eGRfOE+ImLHq8YmWatKs4BDtwLaxqxjRnkmOrx1e8s4tKp9XEbHnrmlQMfPfBhP/fPYV3GG+6yyrA9Ga5dFBke7dI6H0KiP4V4I+C1d1hnsHhH28xrus1o7gL8gQ8/M+WxcZMi8fOmvtPtrFXN46rR1kxm769avNzbiTjZ3d6YMVaqXVPHTeI/6kmU+orXX6fWD5TaAXdd3U3uYKFqh7uoMqq4q2wXrR1Y/xgdQthzE7zl/cNXud73U5szYi8yVZtR3Ok/9tFHH319xUMb+LeB/m/csorE46psa6Y2cC+k4WfMxG/M/NOTUyfxCiOos2HaIXe0uttdxt2WgbsyjnYW7cr6x8RE3DV5BR70GVBn4GrVF+9mm/FxP/DR1+nTIY+umPLYvOi7MW/qkoStmcyeNVO86b5WnDHj2Zjh1vkPd9GUZ16ZfsjrLveY6g67DB7uX4a7MtF+u8x2Ge0K+wfoEEKffewDCnzkXRT46/5L7L+b3q14V4tVX5sxyjvgHv3L6dwxZWXU66j4uK2ZpqzuRBYv9w6Xu1qp/kZZ3/DQ9FdeP+QQpV12mYcH12XsA6rmOtXQHmU7j3ZlXXJnoyJegLe9fzA6P1KuVn2LVc9WpMU9ajPiH38I+z6seIiGvMh4c2vG2InsyQXuRbIP+cup4ge64Y7oZ4xwx6q7uQ3p6zJWuIsq87VomcqzXUS7sn7tB6699lpCrr2WvSTFS+8y36PjqzDe07SZdOUdcOcjxY+7onsf305k4F5Q0+9yZ2fMHPGbp8ZJ66/QOSSeu6e6e7rMfrcZC1WrysgdyEi7THZuXXC/VooXAR9518tVJ96tEyM9bcbcikzmPh2IX/kkthNJuXcE7gW27V7m7kNWT13HrT/20OvTpwPur7/uW6nGbUPqfRndZXzhroq71g6wK+6cvAp44F3UGW+8szZzka/NpCrvyjv7vkyfPv2hx6JcuKL7MJt7ZVY33ouZe5V10Y0tv1zEsa+csoL9PF9J4H54Gu6eLmOGO6sy14Eqo7VHcyMdQtjzG2XEa++qvqs680F576bUbeY1b3n3cX/lkAkT1qyYwiN+3dRfIhvvgXshjbijKth2f3LcunXrJq177I4J0/kg3B/FuSdXd2Sh6q5TDe0SO0f+ne98hxD6TIkX4KF3Y7UK4z2mzXjKu83dbjMi3qfziKcJsW7Sol+aG+9bM7rxXrTc2/UdVfnGzFiOfd6GFdPl+Kr7gQkrVaS6x3UZM9wt7cK65C7Ei0YDvVvxHttmfOU99VoVcJ8+4ZkN8ybRbx0FDzbeqwL3wuOujzLRGkNn3hTwc3xll1eq+o4dNneny4BwF02Gt3aB/Xt0CGHPhXjTuxnv+lQCs80I7hch5X0o3NX3afqEFRvmse/eY92BeyEfVG0RK9WDVk2NsNMf3fTpQ+I+mOqOdRmx5c7DPertUbZL7JJ7BJ57p78QHwPeo3j3tRmsvPvWqoPlPv2VNRz8pHVPqbVqVs94L9p0BwdVx87j2NdMXzMY7ofHcsd23a0uExPuMtsF9q/SIYQ9V+CjfI+Nd7fNvPlsdRedH975i6aqKnStim7NJHGfPmENTXieGL88MduHVYuWe05wP2jVY+wHtWHFmgkT1oAfYUrusMtg3GOqe3QqpBXuorjLbBfYv/vd7xJCnynwN7reYbx7uF/4LE1dQj5T8Uf63OIes1ZN5M68r3mGfx+vCNwLOt1/vpL+kFbesWYN5T5hd3BPsVJlF1Fyu8xHJHdDe4RdcJfgoXdPvMs2g3CvZtqJUd5fi9+awXYiDe5s1jzE/iu58k+jxaVmAvcCGnbXPap9KY/2NROi8XGP33aPXalehHG39mWiLmOGu9LOkL/00kuE0GcReO3divfrrsPbjOJ+IedeQxzug9uJxLlPWMMbzbyfZ/iyqEXLPTqHYGkU7RPScbf3IT+ejjuo7vul6DIi3Hlv59pfekly5+CZd1jfk9uM2nl/k3MnidzBWnUQ3CesWfMQS4+lf+EnzWwL3AuLe+VTbP9shdK+q9w/l8jdW92PtbhH4c60U+P3v3T//YTcf//9EfjIO4j36NT3NOVdcK9p61qCHFcdMnft/RnWDZdm9kJiRc2dZftjUWt3tO8ad/P8sDju997rdBkR7kr7S/d/85vfJOSb34zAK+883s02Y5R3ZGumtYdpr9AXE9u93FmhYd5/XhHKTMFx/6Wl/d3i/qaHu6zuSJfh4S6znWnn3Bl46R3Eu9NmwEWBsXT/852es2Z2nfsaGvCP0f7+ZEj3guO+0tL+XnGXd1JFqrtaqOpw59ofeYSQRx4R3mG86zZjl3dsayZK97Z3jzvrM2vo93VeSPeC405XqYb295C7r7qLk2VAuDPtjzwScWfglXcZ7xH3L3jLO+R+G0/3LvScSO3943BrZrDcqfcV89ZNDOlegNyfGTp3fVB18Nvu2MaM3WVEuEvtgnvkXcS72WainXcv98g7T/euO92zZrzcHx4sd74/M4mQ+sC9wLhvMLWn4/5wSu7GBZXcs3/ddIfcRZeR4X7DI+xB4m/Q8W62GVHexVmRMTuRMt3fTe70e0rre0ZPeC9m7vNWFAB3qv06d6XKufNwv5+H+w2S+yN8e4bGO17e2YGmuI333ZPuhySk+5pnAvfC487WqYXLHXaZGyLuNxhtZgjcd1O6J3JfszJwLzjuDxUX9zlzfv/fN+wa9/eou69ZsyFwzwj3A99F7h/DuZ97ww0/pn9fRnXr2h/N+fbv93C6J3O/IqPXAA7c34N0p9xv+P3v8z9au5UI9eQPVP2lv7vRPs60+9P9wKFyD+fMBO5puVPvX9VL1XNveOTHP77hxzfQP//793PmfOkP6jyvP/xhzlszLv3+u5juQ+M+Ney7Fxz3DXuK+zfAfZl83PmJ7i/9VJd3qp2vVB955KWffvcfLn1rzo+0+q1/+POcb8/4kMP9G3sq3Rf1hKOqhcZ9ZSFwv5dz/5DnlJmfilMImPjoKBNdqf6UnxRMy/uNv7v021T9XFFwSH3Vjxa8NeNv+oR3h7vvOpG7mfuKeSHdC+8w00MW9wm7wP3kXeTOvKs7d9wYxft3ZbxH4KV2sTFzoziq+oEPfH/GjDl//sNWFfZVf3hhwdPfunvPcZ8yMZwzU3jcV+4B7uCyG8gZkYD7d74q4p2fEMmsR9pZuH9Vcacr1e/Tp+jied+asWBOFag4VX9+4elb0nI/eRe4T5hgnTQTzpkpsMkRMnHdlKFzT3f3DvwUMcj9Kt8JwN9T8c69i1Hh/j3/CcB/e/qtF6qq6qX6P1bVvND2dPd+TLvBfd93i/tj6/YO91UtrFnLuK+7Ix33Q1Jxf22o3K21qmwzUXtn3u9X2O//qRHu+D4ke6QnWt1PO+2FP1eBilO1cGFXNbiOGLjQzGupTgA+JA13WmXWMe7hSgQFlu6z1zHva95z7qC8X+WuVXWbia5CEHmXI7RHV88z75sdbcyACyvR6k7L+/63PL3whaoypb6sqrW1q8J67OzdyH0C1b5uduBecOnexe5ndsd7me5Ja1XYZmi8i/r+UymevSSuvYGGu+DubMzwh4uvfrplYVUVKPY197Ut2d3c10xg2b5uarjOTIENu0bkv7D73Ty0Zk167o/Gch/U1kxCm5H1nV2K4Kdq5JVm1F33nOoOr5r3Dfuqec8+++xFXW2tNUbFue+dJf8ey/3RwaQ7076BPfReXeBeYNwrmfd1GybsAe53w8sqXWdfVknVGZbv/Eozwvp3v6q03wi0413G4h49PNNn6LDqXrGk9fkyWHGev2/J33eR+5o1Kx7j2sMlUQuQe2vlaO595YoJazzHmeK5x+xE7mtwf9PeifzG3fChO5w2o67+Ky4Q+V0x7OWvfkdqd8P9OvgAHsY9s7l3sDEj77v3v0vuuw9WnLLnn39nbBru6Lb7HTw+9vpLZeBeYCMeveMgfuGrKbvhsKrm/qDF3bNWRdqM612CF/M9cUklW7tzEbGPGtVd7rrrh6sRGzMUPLuo0qf+d8mTz9dU/RHsXT7x+NhfD+4o05rp/LKoT2X5YbOLmju7muFBS/mVDZ9Zsxu4v2Zwj1+rIm1GxDv0Lq+KGpH/nrweKtRuhzvaZUzuxj7kg3ylypr7Gyd/cuyTzz9fBop92RPLlv49JfeHVvJrAI8OD1ZTgNNLyFz+6B2j/7QyugTwrnAf/NaM1WbsC4kp7zfKC7x/D2C/UT0gGbwgKtZlkrnrjZmTP3ky6+6HH/7G35c+/kRZVHH4SfZV9zyxdGwsd3EB4Mf+hWkf3R24F9qoB5o88aCn+AXeGfjdvhOJl3fnGsAq3k3v6pGZvqMfyUA/WI1ZZaxwN7uMXd2TjzId/vCBD/966TtP3FOmK07ZPU88tXTF64e4K9Xo8u7jxu61l3pc1W2BeyFNPSHd4vEMTvxT9PAd4IGZdnlrxl6rJrUZ66HIPgAD3hpTuxXusV3GfwqBZx/ywIfZY8MvfYqqBxWngVacZ8B3SjxazVOr5IN3dGX0lJki5p4zHiRePDgTBD9Y7tha1d9mnHjXq1XDuy1ePbKq1q7DXXaZKNx9XUZzfxA5Ywbbh2Tt/ZVX7li67AmwY19W9gStOGumRzVm0tQ/6cdVzepRpuLm3qYfi0yAZ48zuQs7keha1ddm3Hh3vatHEb6RP+mHEQbLVKndE+6gy7zJtJvV/UFY3a0TxIx9yFdeZ8+nT3jlkBU07Bv0jv1Wwh9a9U/igfcy/dBMRczdfOg99sCq7FGE17FHEX5ll7ZmPOUdazMfFYtVo87AB5sE4K+1sINsN6vMh8XlIc1wT67u/vMhwbY7/4a8fsjr9FvE1P/gj/xqbFP/9P73lcLjTBYxd/Y4wpXG4wi/b8vPp05i4udtuGNQ3J3yHrPzLrgjD1hjeVcBrx8q/gPXyrdg2pGFakKXianuKU7/nfDQY5Pofw8nzrui+/3qQbOz/SjCRcxdbryDR4n/65bDfvPUOBHxzwxla+ZTnjbzpm4zsfFueVfgzfmYKDJKe1y475/YZT41lBPE7tjAHyB+0sonf7PPFvgY8aMzvO1exNx71U6k4v7+LWyWTJ0U/SCnPJOmvL+RUN49bQbGO+rdC15ht7SDPXd8ofpsmuqe5oyZ6c9MWcm/RfOmVh952GFbtrzf4F5ZTUhH4F54G+/dlYr7XhH3ww474ogjfvPkSiV+CGtVZCsSxvv+ZrzLOmN6FwHPH1P4Yx/4mJYeYRfRDrTbjyCMhvugqruPu8z1SVOfPOLIIw6T3MFKtSur2+5FzH2buRMp2wzlfuSRR53X/Y4QP2/DQw731OXd3Jtx4/1uI94d7xx8JF7N97+vox3RjoX7flG46y5zp6fLJK9UVzz0mLC+8p3f7LPPkUceQb2rLgP2IfMh3Qts8s7WjOK+zz5HHXV09zvjhPhFLORTlPeTUe5Ym7HjHfPOwUfijfmCxO7X7oY7vi8zuOp+x5SVE6PvyKJ3uo87ah+MO9+YqSGkOXAvrBlol1szxlqVe6c/yX3OO/rlY7rfmTop+gmPe2zKMxh3tLw7bQZdrMZ6B+C/4FhX2GO1g3AHC9WELvOG3WUE92emLJrHvxUT50198p9ePu88pn0frv0wsFKNNmbKsroxU8zpXktImbtWVdyPOuqol4855ph/6po6jv2cJ06ayMgnlveUbUYeWsW9a/BCPJyPQOy2dqvK7J+8UP1UYnW/g1Ln0ulv/bKu8w447uiX6TdHcd+Cbcz0B+4FNv3m1sxeLvfzjj76mGOOO25kNQ15Tn7iRFpslsZuReJ7MyLeL4yJd+1dBrwA/xHXOsfuaveF+4WecE/qMg8/vGLpBkp9Ivtlp7He1n0ADYBjjj76PJO7uTHDThDL6MZMMXNnJ4lVV+JrVcWdez9+5MhTKh5fFP3U6bNFG6b8/cDUbUbHe3ydEd5hwEvw1pjYE7XzKvMs5L5vmi5zx5Sp49g/mP2T5019p3rMSDrHMe2Su2el2pLRS4gVN/dt1lkzmvsRkvvLEfcDDqDgTzhh5C2PL+I//ok85q946o6UbcaId/lg8W6dAd4B+GMx6xI7rh2eLZMy3I0u85WlU6Yumqj+pVNbqsecesoJxx9wwAHHce4ve7nz6l6T1TNmijvd0bWqWd4l98j7CSeMObS65Z5xSsLERVOvWPrrN9K1GTzeHe8OeKn+2I+o1z4Eot3ULot7bLhbx5hgl/n10iseA/++2VPbqk8fc8Ipp5wwciTgDrtMKa1Ui5p7Y+JalZf3yHvE/ZQx9Gc/5l9veRyaH0eDfun/GVS823UG887BQ/KWdVw7UmVUuIOF6oNOl/k/Y6+Yynq6+lfd8/gtp4459NBDqXU6I0cK7YnVPcMr1aLmjq1VrfJux/spp5x66hhm4NBD/9k0v/c8mvRj/x7H3Y53j3cAXoiX5uVrJnaf9v3ThDvrMmOXUugT92b/CP584mwq/V9Pp//GMWPGnHoq5w7D3anu5jHVDK9Ui5p7Z4c4roqX930Q7sy74H76mWeeff75t7Q83zBv7wgKfxrH1I8Fi1Uz3h3v39DeLfCWeIM6s25iV9qt4s61u82dhfu/j126bOqiceJvzv83r6Gp7ZazzzzzzNNPZ9yp91NluCPV/YgSO6Za5NzBcdX48n4c5B55px6o97PPOf+ccy7+51ta7mPo6ZOaRbOXXTF2yb8D7p+J4t1X3y3vHLwQb8/XIuxe7U6VMcP9F2OfvGLZotnsbzkxekafZjc83nLLP486/8zzzz/nbMldhXvE/bg01Z0fUx0I3AvvuGpzdK0ZrLxbW5G8vJttJvJ+zjnnnH/BqMtHXXDxpy+e0dZ0T4NMeUl/dsOiZcuWLPm5W2cM73cD7xJ8JP5rCHVmXWOXR5cc7WaV+eWSJ5dR5ePkL6T4e85ruKfptFsuHzXq8otHXUCtn6O1Hwq6zEiny/iq+1xCykO6F+CUD7686zYj4/2c88+/4IJRoy6mc/mnL7/80/8x47Sm5xtm7+0Mh0/ld13o1HftHYAH4s2R1jV2V7so7t1LmPEnGhY5f5+J9O/T2nTajIvPuuZyNhdfPGrUBZz72Wen7DJ4da8mpL4zcC/UA02x5T2pzZzJuZ8vuVPtVPxn2bz6N8q+taEBEjtDPO19xuyGhoZl9933eBed/bR3AF6LB+jFq1cB7LrI8OtbVz9NP+N99933BP0Cs9XX4/+X09CwkDL/v2edRf+WV3/6avY3vpz97UexcD+fhzveZdxtSPwgU08ucC/IyfUklXdjKzJqM3HxTr1ffTVldM1ZZ91++1m3n/Xqq9df/60Zpy1YWAPgS4H0SU0DH+q0if7vtKfB/O1eY74F39fWym5/3338g2dHn4l+UvElzoDMGxpqFi6cMeN3t3/++utfvf72s+hcw7xfrbWPQsLd7jLuNiRW3QP3ghysvKdqM2P83Ln3a65hnm6n2K+/7KYrL6Nz5c033/y7S2d8e8GC1qqGhjMi7NI8cL8rs/cZ8rNFn7ihqmHBggXfvnTGr+gXv/KmK6+86bLPU+3Xvxppv4ZrB+FucR+TpsuUVHUvcu69TnkfRJsBi1XWZkC8X83jnQU89f75z1922U03UWtXXnkzNX/lrTNvnTls+Mzh/3DppZdS/AsWVDVUVTXsDu30EzVULeDAL730VzOHDx9+660z6VekX5cN/Utcxrm/ersV7peDcMcWqg73mC5TkeXqXuTc2c57l1Pe7TZjH2lKaDMw3m+/3vR+8823UoIzGcWZtw6fOYzNwcOG3f/Ng+mcxH4D2MyZs2COmipzauaAeevS3/MP+NVJ9MOH8Wd8houZOZN+OZbsUPv1t6cL92ihah5j8ncZedeOpixX92LnnudXeTdOm7G3IrE2oxarMfGu6wzlflnE3fA+fPiw4ZHOg6M56aSTzo1G/nnuDefe4Ax9o74V/5CTzj1JfIphkPtMqP1Kpv0yu8o4zd1YqA62y4gTZuoC98KcbY2EbE3dZjxb73i8W3UG9y65A/DMvNIuxBtPxkQfILHLbB/m1e5UmfhwP9U4XybNvsyqrF7ZPRPp3i8vRzCINmMtVhPi3a0zWL6b3nXMx81JCvtJRrTb2R5TZaxwPz853GO6DOfeRkhfZ+BeqPGeI6Rl9FDbTEK823UG8y65K+9K/LknpbJuR7uT7Vo7qDKDDPfUXWZ0DenJB+6FvBVZlqbNuFvvcfHuqTOx+S7B64T3kQfUVbLraI/RDqqMvU51mjtcqIJN94Quk+1tyOLnzrYiVznczTYz6Hi36oxb3418V31Ggz/YEK/Vn2RQ18FuR7ul/Upcu9qETB/uSV2mK8Mn/2aBe2efvAdfYpvxHlmV8e6rM7K++7y7AW+Kx+dgjX2YVdu92kFxx6pMbLin7DIkvy1wL9wR9+CLazPoYtWNd1+dEfVdL1eBd6fQpBV/8MFOssMiY2mXy1RfcZfr1MGEu6/LNIZ0L+Apj2kz6GI1Vby7dQbzjgX8sIONccwfDGPdTHajyODaY6sMGu6xC1Wky9R3Bu4FfmDVaTPgvBlrsTrYeI/xbgS83qIxI16aP9hxbga7wo5rv8zSPpRwhwtVcO4vPMZUk+E7MmWEe7N5nXfn4nmexSqId2e16vN+WZx3EPCIeGSGAeww2mWRSandXqemCHf7fkxGl9kWuBf63ky3dd4MXKymindvnZH13fEOCw0GPkk8vKkq7U60u1uQorgnVhk03D0LVXm+TFvWu0wGuLO9mRZw3kzaxarce4+rM6q+u9vvmHcG3iCPmh9mUtc1RkZ7vHZR3OOrDBru7kIV3I9J7ssE7oXfZpDzZrx7kaniPc67U2ggeDvjhXn1NMyhjmJXRSZJe8pwT7VQXUVIT3ngXuDDzpupNh+U7P1Di3e7zsD6DtaruPeZw30R7x0bu6udY7e0y+IOqszQwx3ej6kl48eYssGdPcIquvU+iHhH60yydw/4VOKhdQw7KDJx2s0qkybcvQvVrVm+2152uDcSMtfeercXq2a8mydGOnXGWa4meAfgLfLDk6UL6xp7ovarDe1IlQEHVLFwdxeq8hIEWT73NzPc7a13/14ksjnjrTOgvuPe7YCPwM8cDmeY5wlY18luRbtfO1LcdZUZUrhHm+5Zvh9Thri3I6dFxsT7ASPj60wq7zrgXfAmeaDenpkg2SF2Ee3ptMdUmcGE+6qsn0CQGe5s673avABHunhH64yq7zHekYCPwAvxMx3xXuqRdbvHpNMuijteZfA9dx3upbdQzQh3dr2Zmri9yMR4j6nvmHe70AjwtviZidQN6yDaVZHBtdvF3VNl2KmQvnDHFqrtgXuxLFaj88Tsvcj4eEfrzCC8e8Er8RF662mmaR3HPnjtoMoMIdwrMnxV96xxZ4vVpsR4xzYj7Tqj67vfOyg0CHgpHpJH5lbTuotdFJkE7aK4x1SZdOE+uirjZ7pninsdIXMl95Tx7qkz7nLV9u4GvASvxCvyGHr9Ptu6L9oR7Rej2vF1aly4S+7dJNv32ssW9/56dC8yVbwbdUYtVxO8WwGvwGPi8bnZsW5HeyrtcpnqqzLWJiQW7uJ0mdy2wL2I9iKdE2fsQ6vsxEi1WkXrjK7vPu9GocHBa/Ee9PD9pnWAHRYZTLvalDGKu1Vl5DqVneeeGO6NnYF7Me1FdqWLd6zOYN5HId7tgBeNxgZviPfPlQh22WPMaE+tPaHK+MK9qRR2ITPEfVvevBiwG+9wMxLfnQH1HW7PaO9moTECPgIPxV+ZmnpkXWI3o10VGVu73pRBinvsOhUJd3aIqS5wL7J4r7DjXRxaRVerSH2P924VGgc8Ih5Tb78fWFfYQbSrIpNSu11lrHWqe0C1lMI9O9yxeH+fG+9onbHqO+4dKzSq0RgR74j3z01msCvseJHxaXeLe0yV8YR7e+BeVFOeJt7VajW2vrve7ULjBS/F35Saug52FztSZJANd7u4W1UGrlO94V7fH7gXV7znQLyDM2f8q1Wrvtvez/d7VwGvwSPi/eb1LUzrELuO9qFpj1+nigOqJRbuGeLeWYvGe1ydOWAkWt+NfMcLvA54C7wQD8j75zJtHcOui4xR21HtZnEfeUDqKlNa4Z4l7kZ7tzcjk+qMzzta4L3gDfEx6PUttHUDuxPtl1vRHqs9tsqATciSC/csceebM22p4h31PibJuzfgGXhTPCCv5Dtv+rxtHWDHoj1O+xhMewj3LHNn8R4dWv3LQchqNaG+p/WOBrwpXpB3zVvSBXXLOsBuRHu89hTF3V6nRqdCsgOqdZ2Be/HGu70ZadWZ6GCTf7ma7N0LXotX5gF8+BZ1s8i6B/sQtIvirg8wuVXGOBWyplT23DPHnT0yWXQn7cHXmUTvbsBL8I54Td5Sbzjn1C3rELsT7em0G8U9scpUVpdSuGeM++p6cN67u1p16gyyXPV4xwPeBR+Jt8ljI6mb1iF2J9rjtCcWd3ydWllVGqdCZpI7OzFSXDDSjHe7zgzWOxbwGrzRaRR5Zh5Tz998u01dBbsHexTtqbQbxd2qMvY6tYt+w2o7A/cinQ5CakY7q1W7zjj1Pd47Wmgc8IZ4ZV6yF6Pfat76GhQ7UmTSawd7kEiVidapq7bScO8M3It1GsWxJs9qFa3vxvaM690oNH7wiHgDvQ86tI5it4qMV7velEGKO7JOlZuQvYF78U5ObUZ668zgvOOFxgIPxLvkY+cayzqG3Soyg9QeU2W6S+gIUya5b2ebke5qFakzsL77vVuFBgUPIz4Sf80gqAvrKtgx7E6RSdBuFnesyqj7Y3f0B+5Fvlqd221d710cbIrxPjLeOxrwNngpXpCPQy9v8dnPWsFuYrejPVa7uyljaEeqTFeJ3GUvy9z7O+SpM/H1XS9Xre134N0sNG7AC/BAvCKvzGv55ls+a1IH1i3sRrTrIhOr/WhDu1Pc1Tq1J9cZuBf31MJjq8n13ed9DO7dAx6K1+Rd9oA5oA6tI9gHr90u7miVaS2xdWo2ubPVqnls1ajv6bx7Ck0ceEO8ZR4ZfUto3Y/dKTLptDvFXVUZdt2w5s7AvejrTL3afHfqjKrv8d5jC42s8Aq8KR6QR9Ub7/40ap1jx6PdrO2G9gP82pHizrbc+zoD9+KfOnEVDl+dMZariHekwOMBr8Fr8RF50zw6nzapa+sIdjPazSKDa7eLO1ZlSuG6YSXA3V9nkr2PjPFugfeLF+Q96tU7L/dad7HvJu1GlWnvDNwzsfleLx+uyVPfPd59C1YI/pwY8FA8RO+MebuL3WBX2M/BsLu13ertUDta3EuyymQ13XmdabHPndG773q5Gu/dH/Cyw0fgoXiLfNJcfLEn2CV2NNrTaFebMtFdOow9SHaWe+lVmcxy53Wm267vermazrsv4E3wiPh05s2PGGUEewx2fJGKaMeWqaK4d5Vklckud7Y7U6bqjLVcNbZnvN7RQhMH3hLvV+/eblQSdrTIpNXuVBl2rkwJneWefe78YFNrpWe5OhjvutD4wEPxCPmkGWVbN7DDaLeKzJC1s3NlSu0AU8a5d+Z75G6krO/Y9ozPO15odKNR4IH4IZCH1KF1H3aryMRrB5syZnFvKrlzZbLPvbMPr+9pvCMB7zQaBt4vPhE9uCFmHWA3eowZ7YPVHhV3tgeZ7wzcszW9aH13tiMx72ahQQI+Aq8jXoiPyEPzpnznHRcA6sK6CnYDux3tqsjEaT/M0S4vo9TXPxC4Z2wajfqe2rtVaJyAF+DtiJfiBXkEPQJdUQfWYbCb2I1oV0UmRvsWRHtlGS3u5Z0h3TNZ39tG28tVuP3uej8G9R4DHhOvzdvw4Zv1rW3rXuyD1K63IPUytaakrrRRStx5fa9GvP81hXdQaECjscC74gF5h73DHFB3rUPsRo+xi0w67WKZ2kZIT74zcM/q7vvWVcZy1dyOdLzbBd4NeAnejHguXpG30eOjb322tm4Fu8SORbuu7T7tYAtSLFPZVZT6OgP3bA57jAO+XE3j3S3wTsCj4A3xgLxXvXGTsxHrMdiNHRlVZNJol8vU+v7APavDTp6pMZerKbxjAY+Ct8UL8qZ575xtUHese7B7ikwq7WWleapMyXBnVwUmLWm8ewq81Wj84DV5ad6vXt3gTJu6BzvsMTG1PUF7ZUkvU0uBe+fAWgK3Z1J5h4XGCXgXPBCvyQP06IAbno5Yx7Cb0Y7Udke7uQXJ79GR7wzcM71cNbdnMO/GgtUJeD94IN5D3qSPvAOlHln3Yzei3artMdrbSl57CXDnR1fnVvv7DFrgzYDHwMeKx9H7oHusu9g90W7W9jjtff2Be9anXG9HWt4TCo3VaAzwOuKheIu8Ix9996GOdRXsELvZY+KKDKa9snpu0F4S3PnZBGWId2+Bh4UGNhoJ3o54Q7zHfKJ0aN0IdogdaodFBq/tINuZ9vryzsC9BKYulXes0NiNxgTvF5+k3r21bd3C7ov2dNorg/YS4t7ZnMI7EvCx4F3xCPl0M8Zr3cGuW7td2+Oynd0Tu5QetqDEufPt95rKQXjHAt4DnotX5McMTTqnLqzj2BOiPVZ7WalvuJcW986BRO+HOd7TgDfEa/Jp0IMbn4paj8OOFZmgPXCX3DfGe7cKPAx4C7xYtLriXfKoe/v9BnXbulygGtjtaFe1PWgP3NPku7fQ6IA3wNsRb5N30WMjb+tSt4JdYfdFuyoyQXvgnpjvVqExAz4OPCpem8fdw/fqj3Gs+7Dj0a6LTNAeuIN8t/dnnEJjBrwDPk48NG+xN8e4mfkZEOsudjfajSITtAfuIt/LfN5hobHAH42CV+It8qb52DkBo66tW9iPtrGDIoNr5/vtQXtJchf5Dr17Co0KeKPCI+C94pPUIzd3rLvYYY/R0Y7UdngsNWgvWe5RvncL70iBdwLeBx4Rj5FPOSM91uOwu0VG1/aQ7YF7lO898vxIpND4A94E74pX5EcOVTqljlo3sSdGO6jt/BzIoL2UuUfnz8zlD6zteI8NeAY+RrxBPh16cHNIXViHwe5i90W7rb0+nDlQ2ty5d9JW6SvwRsCnAA/EM/LQPArffv/xBnXDeiJ2sEZ1aju/p144K6zkuXfW1svLixneQaHxgpfbkpZ4SJ6bd9Bjc7wlXVKH1vXWI4rdLTJqA5Jp7wvaA3d+fw+1Ae8WGtjgEfCWeCTktXrMvXiHfXuDurZuYRelHY12UWS49u6ycN+lwF0Mu/+q2KBxA/59voCX4HXEW+Jd8+nmuOMw6yDYAfZU0R5tyeQD78A98p63F6xuwGPg3YiX4jX5QaE/zqYOrNvB7sHuao+2ZNoHBoLvwJ3vRw60E3kBGrPQwCUrBO9GvBaPkU9Qb97Sog6tw2BX2N0eA4sMr+31YQMycIcbNLrAxwe8A94Qb4e8gz5+wIfFWbexx0U7r+0dYZEauJsL1g5W4KtH24dYPeCxTmOKN8wnqTduerSmDqw7LcaHHRxIHT26i9X2XFikBu52gc+xI6xtsNDAgI8HD8Ub5E3ziXO0SR2x7sduRnu0SGVXCqOL1O2BduBuDy/wutDYAY+Cx8Q75JPZm7e1qJvW47Eb0c6LTH1jcB24Y8OPOG2tQALeB94rXpq30CfNy5F0QB2zrrEjPUZF++g2VmT6egPrwB2d7f05FvBNlTDg7QqvwWMRb5Jn5jn6l9M4t6FD6nawy2R3scto5zsyPWG3PXCPAc8uQUNXrLEBz8H7I94mH6EX7NGJ3m990D6odRXsADsa7XyNGk4JC9wTdmj6jIBHwPNKY0W8K94mD+HDQW+2T5x1s8Xg2FexNWpP2JEJ3BOHnQMvAx5tNBo8jHgu3iLvQR8z9scfqa2DYPdglz1mdBe7TFh9c/hZBu4pVqwdSMC74EGnMcQ75FOpRz7oSMd6HHYQ7ay1k1xYowbuqaafB7zYookFD8Qnknfsx90Goa6tx2KvbOGtvXl72GwP3AcV8GIP3gGfJF6QjzWfJF1ST7JuYR9dXRWiPXAf9PBjTnOjs8aSwEPxirw0f+SgoSvpkrqw7seuSjtfopL6uhDtgfsgt2j4HjxsNCh4TLwmr8zHuYe3OcKhjlh3sYseww8skXzYkAncBz3bf8IOspKqbh94TDxG3maPjXlrg7rPuo19dAU7Z4D01YYz2wP3ocxqdrcPo8JblcYUL3o8IG+jTx7woVu26L7uWnewR6U97D4G7kOf+Wt5hW9ywLsRH4lX5KH5NOqNm2/ZAmNdWbeCnS9QBfZuvvlI8qvDzyxw35U9mj4DPNZptHhFHjWfaizpmnpMsFcK7Gvnh59X4L6LU9fhA4+K1+Sl+XTq1Y3/ilC3rUPsMtlz4QSZwH23bErWO+AR8S55C/0Wgz/yZg3dQx0Gu5XsHT8Je4+B++6Zfgm+uzIWvEFemY/U4/AFcuDckI5YN7DLZO8Id70O3Hc/eFIjwRvi/eQN9YZ9Qzji3JSOWq+sqArYA/d3FXxVlwQfI94mj7r3KPdSN62PrmzbGrAH7u/2opVsbVkFI94n3oM+aZxPYlhXwd7dOjcsUAP3d3ca+ZkFtNNUGBGvxbvk06tHPvIg1DoN9qjFkHzttrBCDdzfrdm+vTw60kojvtsWr8ij5nH5/lsepKlb1qtFsNe394bTBQL3d3cG+ps7RMS3qVKDkI8xnzQHeanTEtNSFn31vlDZA/f3JuNrRcQj4k3yg0UPP1JSB9ZXyRJTnw+XwQvc38uI78PEC/K2+ST39m2VdE2d5bqwTnJ1neGsx8D9vY34+fkOKR70eNO8gz5pTsSks77eJDoM6WsO91QK3PfIlCvxW1u7VhnkpflIfZL76DbqQ4xPVNndVjM3WA/cC0s8KWuqsMgD9Bq+PcZNrA+vXNXVKmM9WA/cC2F6m3NEkW9t6660zdvskXE/orKyuq1mq/y89bm6YD1wL4wav72/UYc8mVvV1IWaTztMemuV+nykLx8OnQbuhRbydYA8IVU1TRXVg0VfWVnR1VRTRiD1xnBP68C9AGdgoLO3MZ8jcLZS9W0VFZWVcfDpO1dVVLQ01VTNhR9bn2uvDdQD9wKvNuV1lvmo4VRVtTbRaalQw16lxquqnFtT6Y29neFqMYF7sVSb2vZ8rp4Mejpy+eba/gA9cC+6crNte2dtbXt7LteRzLwvl2tvrg2nBgTumZjyWiafTn5tTj7l2evN9B29neHRwgL3bFb78C0I3MOECdzDhAncw4QJ3MOECdzDhAncwwTuYcIE7mHCBO5hwgTuYcIE7mHCBO5hwgTuYcIE7mHCBO5hwgTuYcIE7mHCBO5hAvcwYQL3MGEC9zBhAvcwYQL3MGEC9zBhAvcwYQL3MGEC9zBhAvcwYQL3MIF7mDCBe5gwgXuYMIF7mDCBe5gwgXuYMIF7mDCBe5gwgXuYMIF7mDCBe5jAPUyYzM//F2AAjX6Y44PuUAEAAAAASUVORK5CYII=;" vertex="1" parent="7">
                    <mxGeometry x="530" y="90" width="250" height="143" as="geometry"/>
                </mxCell>
                <mxCell id="9" value="&lt;font style=&quot;font-size: 28px;&quot;&gt;Formula: V = 4/3 x Pi x r&lt;sup&gt;3&lt;/sup&gt;&lt;/font&gt;" style="text;html=1;align=center;verticalAlign=middle;resizable=0;points=[];autosize=1;strokeColor=none;fillColor=none;" vertex="1" parent="7">
                    <mxGeometry y="60" width="340" height="50" as="geometry"/>
                </mxCell>
                <mxCell id="10" value="Radius:" style="text;html=1;align=center;verticalAlign=middle;resizable=0;points=[];autosize=1;strokeColor=none;fillColor=none;fontSize=28;" vertex="1" parent="7">
                    <mxGeometry x="20" y="150" width="120" height="50" as="geometry"/>
                </mxCell>
                <mxCell id="11" value="Volume:&amp;nbsp;" style="text;html=1;align=center;verticalAlign=middle;resizable=0;points=[];autosize=1;strokeColor=none;fillColor=none;fontSize=28;" vertex="1" parent="7">
                    <mxGeometry x="20" y="200" width="130" height="50" as="geometry"/>
                </mxCell>
                <mxCell id="12" value="units" style="text;html=1;align=center;verticalAlign=middle;resizable=0;points=[];autosize=1;strokeColor=none;fillColor=none;fontSize=28;" vertex="1" parent="7">
                    <mxGeometry x="190" y="150" width="80" height="50" as="geometry"/>
                </mxCell>
                <mxCell id="13" value="units&lt;sup&gt;3&lt;/sup&gt;" style="text;html=1;align=center;verticalAlign=middle;resizable=0;points=[];autosize=1;strokeColor=none;fillColor=none;fontSize=28;" vertex="1" parent="7">
                    <mxGeometry x="180" y="200" width="100" height="50" as="geometry"/>
                </mxCell>
            </root>
        </mxGraphModel>
    </diagram>
</mxfile>